HIERARCHY
ROOT Motion_Root
{
	OFFSET 0.000000 1.000000 0.000000
	CHANNELS 6 Xposition Yposition Zposition Zrotation Yrotation Xrotation
	JOINT Balance_Root
	{
		OFFSET 0.000000 0.000000 0.000000
		CHANNELS 3 Zrotation Yrotation Xrotation
		JOINT Character_Root
		{
			OFFSET 0.000000 0.066940 0.019576
			CHANNELS 6 Xposition Yposition Zposition Zrotation Yrotation Xrotation
			JOINT Pelvis
			{
				OFFSET 0.000000 -0.000049 0.000000
				CHANNELS 3 Zrotation Yrotation Xrotation
				JOINT Hip_L
				{
					OFFSET 0.099629 -0.096262 0.000507
					CHANNELS 3 Zrotation Yrotation Xrotation
					JOINT Knee_L
					{
						OFFSET 0.440729 -0.000000 -0.000000
						CHANNELS 3 Zrotation Yrotation Xrotation
						JOINT Ankle_L
						{
							OFFSET 0.418593 -0.000000 -0.000000
							CHANNELS 3 Zrotation Yrotation Xrotation
							JOINT Ball_L
							{
								OFFSET 0.147135 0.000000 -0.000000
								CHANNELS 3 Zrotation Yrotation Xrotation
								End Site
								{
									OFFSET 0.000000 0.050456 0.000000
								}
							}
						}
					}
				}
				JOINT Hip_R
				{
					OFFSET -0.099629 -0.096263 0.000507
					CHANNELS 3 Zrotation Yrotation Xrotation
					JOINT Knee_R
					{
						OFFSET -0.440729 0.000000 0.000000
						CHANNELS 3 Zrotation Yrotation Xrotation
						JOINT Ankle_R
						{
							OFFSET -0.418593 0.000000 -0.000001
							CHANNELS 3 Zrotation Yrotation Xrotation
							JOINT Ball_R
							{
								OFFSET -0.147135 0.000000 0.000001
								CHANNELS 3 Zrotation Yrotation Xrotation
								End Site
								{
									OFFSET 0.000000 0.050456 0.000000
								}
							}
						}
					}
				}
			}
			JOINT Spine_1
			{
				OFFSET 0.000000 0.010172 0.000032
				CHANNELS 3 Zrotation Yrotation Xrotation
				JOINT Spine_2
				{
					OFFSET 0.150000 0.000000 -0.000000
					CHANNELS 3 Zrotation Yrotation Xrotation
					JOINT Spine_3
					{
						OFFSET 0.149789 0.000000 -0.000000
						CHANNELS 3 Zrotation Yrotation Xrotation
						JOINT Clavicle_L
						{
							OFFSET 0.178472 0.004071 -0.029517
							CHANNELS 3 Zrotation Yrotation Xrotation
							JOINT Shoulder_L
							{
								OFFSET 0.184188 -0.037845 0.013991
								CHANNELS 3 Zrotation Yrotation Xrotation
								JOINT Elbow_L
								{
									OFFSET 0.294246 0.000000 -0.000000
									CHANNELS 3 Zrotation Yrotation Xrotation
									JOINT Forarm_L
									{
										OFFSET 0.154423 0.000000 0.000000
										CHANNELS 3 Zrotation Yrotation Xrotation
										JOINT Wrist_L
										{
											OFFSET 0.142091 0.000000 0.000000
											CHANNELS 3 Zrotation Yrotation Xrotation
											JOINT Middle_Base_L
											{
												OFFSET 0.095028 0.000000 -0.000000
												CHANNELS 3 Zrotation Yrotation Xrotation
												JOINT Middle_L
												{
													OFFSET 0.047568 -0.000000 0.000000
													CHANNELS 3 Zrotation Yrotation Xrotation
													End Site
													{
														OFFSET 0.000000 0.050456 0.000000
													}
												}
											}
											JOINT Thumb_Base_L
											{
												OFFSET 0.008685 0.035442 -0.015288
												CHANNELS 3 Zrotation Yrotation Xrotation
												JOINT Thumb_L
												{
													OFFSET 0.048268 0.000000 -0.000000
													CHANNELS 3 Zrotation Yrotation Xrotation
													End Site
													{
														OFFSET 0.000000 0.050456 0.000000
													}
												}
											}
										}
									}
								}
							}
						}
						JOINT Neck
						{
							OFFSET 0.239309 0.000000 -0.000000
							CHANNELS 3 Zrotation Yrotation Xrotation
							JOINT Head
							{
								OFFSET 0.069269 0.000000 -0.000000
								CHANNELS 3 Zrotation Yrotation Xrotation
								JOINT Jaw
								{
									OFFSET 0.031254 0.000000 0.000000
									CHANNELS 3 Zrotation Yrotation Xrotation
									End Site
									{
										OFFSET 0.000000 0.050456 0.000000
									}
								}
							}
						}
						JOINT Clavicle_R
						{
							OFFSET 0.178474 0.004071 0.029517
							CHANNELS 3 Zrotation Yrotation Xrotation
							JOINT Shoulder_R
							{
								OFFSET -0.184187 0.037850 -0.013991
								CHANNELS 3 Zrotation Yrotation Xrotation
								JOINT Elbow_R
								{
									OFFSET -0.294245 0.000000 -0.000001
									CHANNELS 3 Zrotation Yrotation Xrotation
									JOINT Forarm_R
									{
										OFFSET -0.154426 0.000001 0.000003
										CHANNELS 3 Zrotation Yrotation Xrotation
										JOINT Wrist_R
										{
											OFFSET -0.142086 -0.000001 -0.000003
											CHANNELS 3 Zrotation Yrotation Xrotation
											JOINT Index_Base_R
											{
												OFFSET -0.095816 -0.031714 0.001946
												CHANNELS 3 Zrotation Yrotation Xrotation
												JOINT Index_R
												{
													OFFSET -0.045455 0.000000 0.000000
													CHANNELS 3 Zrotation Yrotation Xrotation
													End Site
													{
														OFFSET 0.000000 0.050456 0.000000
													}
												}
											}
											JOINT Middle_Base_R
											{
												OFFSET -0.095029 0.000000 -0.000000
												CHANNELS 3 Zrotation Yrotation Xrotation
												JOINT Middle_R
												{
													OFFSET -0.047568 -0.000001 -0.000000
													CHANNELS 3 Zrotation Yrotation Xrotation
													End Site
													{
														OFFSET 0.000000 0.050456 0.000000
													}
												}
											}
											JOINT Thumb_Base_R
											{
												OFFSET -0.008688 -0.035441 0.015288
												CHANNELS 3 Zrotation Yrotation Xrotation
												JOINT Thumb_R
												{
													OFFSET -0.048266 0.000002 -0.000000
													CHANNELS 3 Zrotation Yrotation Xrotation
													End Site
													{
														OFFSET 0.000000 0.050456 0.000000
													}
												}
											}
											JOINT R_Wrist_Grapple
											{
												OFFSET -0.075001 0.003295 0.119021
												CHANNELS 6 Xposition Yposition Zposition Zrotation Yrotation Xrotation
												End Site
												{
													OFFSET 0.000000 0.050456 0.000000
												}
											}
										}
									}
								}
							}
						}
					}
				}
			}
		}
	}
	JOINT Root_Grapple
	{
		OFFSET 0.000000 -1.000000 0.000000
		CHANNELS 3 Zrotation Yrotation Xrotation
		End Site
		{
			OFFSET 0.000000 0.050456 0.000000
		}
	}
}
MOTION
Frames: 4
Frame Time: 0.0333333
0.000000 0.000000 0.000000 0.000000 0.000000 -0.000000 0.000000 0.000000 -0.000000 -0.082367 -0.575973 -0.069273 0.000000 0.000000 -0.000000 13.661644 -22.193219 -4.403414 -156.928926 89.620438 12.875876 127.162360 -0.000000 0.000000 -99.301701 -11.398800 3.094693 -26.421217 2.635525 -0.618775 30.291524 -24.671363 -66.829350 151.202221 -0.000000 0.000000 -99.099589 -12.436158 4.551089 -26.409136 1.756960 -0.412269 101.234142 10.481078 -114.385784 21.648514 -4.595139 -2.012179 19.132364 -4.708546 -1.745214 36.604868 79.214189 129.031530 -80.049134 21.458426 -121.408752 94.471493 -0.000000 0.000000 0.000000 0.000000 -49.141264 4.835366 -7.506265 -0.201614 6.216498 48.047810 -90.164734 32.123525 2.471801 4.469032 28.981955 25.723204 -147.222086 16.076846 -9.994902 -6.905087 45.722958 -18.436008 -6.535858 27.836118 -24.307339 28.011657 28.618384 0.000000 -0.000000 -80.773807 80.453101 -168.382928 -21.657695 25.152932 -61.457526 55.603365 -0.000000 0.000000 0.000000 -0.000000 88.933529 14.899108 -11.378468 -2.988287 -5.452119 61.484880 -99.154341 53.340498 -0.806307 -0.405011 7.314551 65.260301 -84.499600 58.601820 3.053152 3.783646 13.935302 40.322833 153.605309 19.148744 7.122796 1.202959 0.000000 0.000000 0.000000 0.000000 -90.000000 179.999995 0.000000 0.000000 -0.000000
0.000000 0.000000 0.000000 0.000000 0.000000 -0.000000 0.000000 0.000000 -0.000000 -0.084229 -0.575729 -0.067153 0.000000 0.000000 -0.000000 13.778540 -22.109805 -3.965841 -122.720903 89.291602 47.412840 127.004007 -0.000000 0.000000 -98.828678 -11.423522 3.115736 -26.421217 2.635525 -0.618775 29.994801 -24.213486 -67.018090 151.402823 -0.000000 0.000000 -99.217589 -12.576896 4.672404 -26.409136 1.756960 -0.412269 101.762946 10.317894 -114.025485 21.713993 -4.766863 -1.859793 19.195507 -4.874852 -1.615863 35.820918 79.097257 128.227882 -79.659648 21.892615 -121.613841 94.358180 -0.000000 0.000000 0.000000 0.000000 -48.205016 4.792046 -8.217525 -0.165443 6.216498 48.047810 -90.164734 32.123525 2.471801 4.469032 28.981955 25.723204 -147.222086 16.076846 -9.994902 -6.905087 46.033357 -18.738763 -6.931991 27.810092 -24.823631 28.254319 28.618384 0.000000 -0.000000 -80.307842 80.524385 -167.964812 -21.171965 24.739109 -61.466516 56.475127 -0.000000 0.000000 0.000000 -0.000000 88.399956 14.791571 -11.479037 -2.989642 -5.452119 61.484880 -99.154341 53.340498 -0.806307 -0.405011 7.314551 65.260301 -84.499600 58.601820 3.053152 3.783646 13.935302 40.322833 153.605309 19.148744 7.122796 1.202959 0.000000 0.000000 0.000000 0.000000 -90.000000 179.999995 0.000000 0.000000 -0.000000
0.000000 0.000000 0.000000 0.000000 0.000000 -0.000000 0.000000 0.000000 -0.000000 -0.087219 -0.576706 -0.066939 0.000000 0.000000 -0.000000 13.896055 -22.027217 -3.528326 -89.018204 88.882498 80.896897 126.845652 -0.000000 0.000000 -98.759237 -11.696319 3.348912 -26.421217 2.635525 -0.618775 30.637396 -24.526430 -68.204041 151.603426 -0.000000 0.000000 -98.818259 -13.290677 5.297093 -26.409136 1.756960 -0.412269 102.290438 10.151446 -113.666909 21.779032 -4.938762 -1.707562 19.258290 -5.041303 -1.486661 35.053913 78.978290 127.441176 -79.270654 22.328074 -121.816362 93.764657 -0.000000 0.000000 0.000000 0.000000 -47.268768 4.748189 -8.928785 -0.128659 6.216498 48.047810 -90.164734 32.123525 2.471801 4.469032 28.981955 25.723204 -147.222086 16.076846 -9.994902 -6.905087 46.148697 -18.841591 -6.957808 27.781538 -25.339792 28.498254 28.618384 0.000000 -0.000000 -79.835218 80.595101 -167.540032 -20.687778 24.325383 -61.479326 56.822696 -0.000000 0.000000 0.000000 -0.000000 88.209108 14.683998 -11.579609 -2.990805 -5.452119 61.484880 -99.154341 53.340498 -0.806307 -0.405011 7.314551 65.260301 -84.499600 58.601820 3.053152 3.783646 13.935302 40.322833 153.605309 19.148744 7.122796 1.202959 0.000000 0.000000 0.000000 0.000000 -90.000000 179.999995 0.000000 0.000000 -0.000000
0.000000 0.000000 0.000000 0.000000 0.000000 -0.000000 0.000000 0.000000 -0.000000 -0.090210 -0.577682 -0.066725 0.000000 0.000000 -0.000000 14.014178 -21.945463 -3.090883 -69.731536 88.328124 99.735356 126.687294 -0.000000 0.000000 -98.690862 -11.969393 3.581986 -26.421217 2.635525 -0.618775 31.288637 -24.827186 -69.396824 151.804027 -0.000000 0.000000 -98.425726 -14.008713 5.918594 -26.409136 1.756960 -0.412269 102.816572 9.981765 -113.310101 21.843630 -5.110835 -1.555486 19.320713 -5.207895 -1.357607 34.303595 78.857354 126.671153 -79.296096 22.007545 -121.402044 93.171133 -0.000000 0.000000 0.000000 0.000000 -46.332520 4.703781 -9.639989 -0.091249 6.216498 48.047810 -90.164734 32.123525 2.471801 4.469032 28.981955 25.723204 -147.222086 16.076846 -9.994902 -6.905087 46.264157 -18.944371 -6.983859 27.777124 -25.785686 28.274967 28.618384 0.000000 -0.000000 -79.355838 80.665236 -167.108492 -20.942744 23.870438 -61.591957 57.170274 -0.000000 0.000000 0.000000 -0.000000 88.018259 14.576388 -11.680183 -2.991776 -5.452119 61.484880 -99.154341 53.340498 -0.806307 -0.405011 7.314551 65.260301 -84.499600 58.601820 3.053152 3.783646 13.935302 40.322833 153.605309 19.148744 7.122796 1.202959 0.000000 0.000000 0.000000 0.000000 -90.000000 179.999995 0.000000 0.000000 -0.000000
